HIERARCHY
ROOT Hips
{
	OFFSET 0.000000 83.214638 0.000000
	CHANNELS 6 Xposition Yposition Zposition Xrotation Yrotation Zrotation
	JOINT Pelvis
	{
		OFFSET 0.000000 0.000000 0.000000
		CHANNELS 3 Xrotation Yrotation Zrotation
		JOINT LeftUpLeg
		{
			OFFSET 8.479700 -4.795502 -0.379100
			CHANNELS 3 Xrotation Yrotation Zrotation
			JOINT LeftLeg
			{
				OFFSET 0.024144 -32.555107 0.112900
				CHANNELS 3 Xrotation Yrotation Zrotation
				JOINT LeftFoot
				{
					OFFSET -0.024144 -32.638630 -3.012600
					CHANNELS 3 Xrotation Yrotation Zrotation
					JOINT LeftToeBase
					{
						OFFSET 0.970200 -13.225400 11.864200
						CHANNELS 3 Xrotation Yrotation Zrotation
						End Site
						{
							OFFSET 0.000000 12.319262 0.000000
						}
					}
					JOINT LFootTongue
					{
						OFFSET 1.142400 -1.059800 6.665200
						CHANNELS 3 Xrotation Yrotation Zrotation
						End Site
						{
							OFFSET 0.000000 12.319262 0.000000
						}
					}
				}
				JOINT LeftPantLeg
				{
					OFFSET 0.918482 -16.533964 -2.284700
					CHANNELS 3 Xrotation Yrotation Zrotation
					End Site
					{
						OFFSET 0.350399 24.744368 0.000000
					}
				}
			}
		}
		JOINT RightUpLeg
		{
			OFFSET -8.479700 -4.795502 -0.379100
			CHANNELS 3 Xrotation Yrotation Zrotation
			JOINT RightLeg
			{
				OFFSET -0.023144 -32.555092 0.112900
				CHANNELS 3 Xrotation Yrotation Zrotation
				JOINT RightFoot
				{
					OFFSET 0.023144 -32.638641 -3.012700
					CHANNELS 3 Xrotation Yrotation Zrotation
					JOINT RightToeBase
					{
						OFFSET -0.970200 -13.225400 11.864200
						CHANNELS 3 Xrotation Yrotation Zrotation
						End Site
						{
							OFFSET 0.000000 12.319244 0.000000
						}
					}
					JOINT RFootTongue
					{
						OFFSET -1.142200 -1.059800 6.665200
						CHANNELS 3 Xrotation Yrotation Zrotation
						End Site
						{
							OFFSET 0.000000 12.319243 0.000000
						}
					}
				}
				JOINT RightPantLeg
				{
					OFFSET -0.919482 -16.533978 -2.284800
					CHANNELS 3 Xrotation Yrotation Zrotation
					End Site
					{
						OFFSET -0.350400 24.744419 0.000000
					}
				}
			}
		}
	}
	JOINT Spine
	{
		OFFSET 0.000000 7.722000 1.166200
		CHANNELS 3 Xrotation Yrotation Zrotation
		JOINT Spine1
		{
			OFFSET 0.000000 12.024101 0.248800
			CHANNELS 3 Xrotation Yrotation Zrotation
			JOINT Spine2
			{
				OFFSET 0.000000 11.502998 -0.491200
				CHANNELS 3 Xrotation Yrotation Zrotation
				JOINT Neck
				{
					OFFSET 0.000000 18.430702 -3.123100
					CHANNELS 3 Xrotation Yrotation Zrotation
					JOINT Head
					{
						OFFSET 0.000000 9.051102 1.034000
						CHANNELS 3 Xrotation Yrotation Zrotation
						JOINT HairB
						{
							OFFSET 0.208400 24.786102 24.822300
							CHANNELS 3 Xrotation Yrotation Zrotation
							End Site
							{
								OFFSET 0.000000 32.263779 0.000000
							}
						}
						JOINT HairA
						{
							OFFSET -7.081100 24.428299 23.196600
							CHANNELS 3 Xrotation Yrotation Zrotation
							End Site
							{
								OFFSET 0.000000 32.263779 0.000000
							}
						}
						JOINT Hat
						{
							OFFSET 16.728800 15.048294 -15.439601
							CHANNELS 3 Xrotation Yrotation Zrotation
							End Site
							{
								OFFSET 0.000000 32.263779 0.000000
							}
						}
					}
				}
				JOINT LeftShoulder
				{
					OFFSET 6.197800 13.665199 -4.064700
					CHANNELS 3 Xrotation Yrotation Zrotation
					JOINT LeftArm
					{
						OFFSET 7.778100 -0.187103 -1.709300
						CHANNELS 3 Xrotation Yrotation Zrotation
						JOINT LeftForeArm
						{
							OFFSET 22.049376 0.000000 0.000000
							CHANNELS 3 Xrotation Yrotation Zrotation
							JOINT LeftHand
							{
								OFFSET 23.009392 0.000000 0.000000
								CHANNELS 3 Xrotation Yrotation Zrotation
								JOINT LeftHandThumb1
								{
									OFFSET 3.507191 -2.063065 3.133727
									CHANNELS 3 Xrotation Yrotation Zrotation
									JOINT LeftHandThumb2
									{
										OFFSET 3.101337 -1.790558 1.790558
										CHANNELS 3 Xrotation Yrotation Zrotation
										JOINT LeftHandThumb3
										{
											OFFSET 3.058640 -1.765907 1.765906
											CHANNELS 3 Xrotation Yrotation Zrotation
											End Site
											{
												OFFSET -0.415260 3.926476 -0.049563
											}
										}
									}
								}
								JOINT LeftHandIndex1
								{
									OFFSET 11.334419 -0.901459 3.706815
									CHANNELS 3 Xrotation Yrotation Zrotation
									JOINT LeftHandIndex2
									{
										OFFSET 3.283112 0.000000 0.000000
										CHANNELS 3 Xrotation Yrotation Zrotation
										JOINT LeftHandIndex3
										{
											OFFSET 3.323853 0.000000 0.000000
											CHANNELS 3 Xrotation Yrotation Zrotation
											End Site
											{
												OFFSET -1.135597 3.097809 0.402452
											}
										}
									}
								}
								JOINT LeftHandMiddle1
								{
									OFFSET 11.335861 0.000000 0.000000
									CHANNELS 3 Xrotation Yrotation Zrotation
									JOINT LeftHandMiddle2
									{
										OFFSET 3.410492 0.000000 0.000000
										CHANNELS 3 Xrotation Yrotation Zrotation
										JOINT LeftHandMiddle3
										{
											OFFSET 3.312172 0.000000 0.000000
											CHANNELS 3 Xrotation Yrotation Zrotation
											End Site
											{
												OFFSET -1.150200 3.080154 0.400270
											}
										}
									}
								}
								JOINT LeftHandRing1
								{
									OFFSET 11.514786 -0.013176 -3.003090
									CHANNELS 3 Xrotation Yrotation Zrotation
									JOINT LeftHandRing2
									{
										OFFSET 3.053307 0.000000 0.000000
										CHANNELS 3 Xrotation Yrotation Zrotation
										JOINT LeftHandRing3
										{
											OFFSET 3.295807 0.000000 0.000000
											CHANNELS 3 Xrotation Yrotation Zrotation
											End Site
											{
												OFFSET -1.281006 3.013344 0.375733
											}
										}
									}
								}
								JOINT LeftHandPinky1
								{
									OFFSET 10.518692 -0.960396 -5.730441
									CHANNELS 3 Xrotation Yrotation Zrotation
									JOINT LeftHandPinky2
									{
										OFFSET 2.861649 0.000000 0.000000
										CHANNELS 3 Xrotation Yrotation Zrotation
										JOINT LeftHandPinky3
										{
											OFFSET 2.863380 0.000000 0.000000
											CHANNELS 3 Xrotation Yrotation Zrotation
											End Site
											{
												OFFSET -0.843597 2.711159 0.369971
											}
										}
									}
								}
							}
							JOINT LSleeve
							{
								OFFSET 6.676277 -0.344902 -1.011730
								CHANNELS 3 Xrotation Yrotation Zrotation
								End Site
								{
									OFFSET 0.000000 14.885353 0.000000
								}
							}
						}
					}
				}
				JOINT RightShoulder
				{
					OFFSET -6.197800 13.665199 -4.064700
					CHANNELS 3 Xrotation Yrotation Zrotation
					JOINT RightArm
					{
						OFFSET -7.778100 -0.187103 -1.709300
						CHANNELS 3 Xrotation Yrotation Zrotation
						JOINT RightForeArm
						{
							OFFSET -22.049376 0.000000 0.000000
							CHANNELS 3 Xrotation Yrotation Zrotation
							JOINT RightHand
							{
								OFFSET -23.009392 0.000000 0.000000
								CHANNELS 3 Xrotation Yrotation Zrotation
								JOINT RightHandThumb1
								{
									OFFSET -3.507191 -2.063065 3.133727
									CHANNELS 3 Xrotation Yrotation Zrotation
									JOINT RightHandThumb2
									{
										OFFSET -3.101337 -1.790558 1.790558
										CHANNELS 3 Xrotation Yrotation Zrotation
										JOINT RightHandThumb3
										{
											OFFSET -3.058640 -1.765907 1.765906
											CHANNELS 3 Xrotation Yrotation Zrotation
											End Site
											{
												OFFSET 0.415260 3.926476 -0.049563
											}
										}
									}
								}
								JOINT RightHandIndex1
								{
									OFFSET -11.334419 -0.901459 3.706815
									CHANNELS 3 Xrotation Yrotation Zrotation
									JOINT RightHandIndex2
									{
										OFFSET -3.283112 0.000000 0.000000
										CHANNELS 3 Xrotation Yrotation Zrotation
										JOINT RightHandIndex3
										{
											OFFSET -3.323853 0.000000 0.000000
											CHANNELS 3 Xrotation Yrotation Zrotation
											End Site
											{
												OFFSET 1.135597 3.097809 0.402452
											}
										}
									}
								}
								JOINT RightHandMiddle1
								{
									OFFSET -11.335861 0.000000 0.000000
									CHANNELS 3 Xrotation Yrotation Zrotation
									JOINT RightHandMiddle2
									{
										OFFSET -3.410492 0.000000 0.000000
										CHANNELS 3 Xrotation Yrotation Zrotation
										JOINT RightHandMiddle3
										{
											OFFSET -3.312172 0.000000 0.000000
											CHANNELS 3 Xrotation Yrotation Zrotation
											End Site
											{
												OFFSET 1.150200 3.080154 0.400270
											}
										}
									}
								}
								JOINT RightHandRing1
								{
									OFFSET -11.514786 -0.013176 -3.003090
									CHANNELS 3 Xrotation Yrotation Zrotation
									JOINT RightHandRing2
									{
										OFFSET -3.053307 0.000000 0.000000
										CHANNELS 3 Xrotation Yrotation Zrotation
										JOINT RightHandRing3
										{
											OFFSET -3.295807 0.000000 0.000000
											CHANNELS 3 Xrotation Yrotation Zrotation
											End Site
											{
												OFFSET 1.281006 3.013344 0.375733
											}
										}
									}
								}
								JOINT RightHandPinky1
								{
									OFFSET -10.518692 -0.960396 -5.730441
									CHANNELS 3 Xrotation Yrotation Zrotation
									JOINT RightHandPinky2
									{
										OFFSET -2.861649 0.000000 0.000000
										CHANNELS 3 Xrotation Yrotation Zrotation
										JOINT RightHandPinky3
										{
											OFFSET -2.863380 0.000000 0.000000
											CHANNELS 3 Xrotation Yrotation Zrotation
											End Site
											{
												OFFSET 0.843597 2.711159 0.369971
											}
										}
									}
								}
							}
							JOINT RSleeve
							{
								OFFSET -6.676277 -0.344902 -1.011730
								CHANNELS 3 Xrotation Yrotation Zrotation
								End Site
								{
									OFFSET 0.000000 14.885353 0.000000
								}
							}
						}
					}
				}
				JOINT Backpack
				{
					OFFSET 0.000000 -2.471497 36.677502
					CHANNELS 3 Xrotation Yrotation Zrotation
					End Site
					{
						OFFSET 0.000000 20.427315 0.000000
					}
				}
				JOINT Hood
				{
					OFFSET 0.000000 18.754097 -10.431000
					CHANNELS 3 Xrotation Yrotation Zrotation
					JOINT Hood1
					{
						OFFSET 0.000000 -5.011002 -7.685901
						CHANNELS 3 Xrotation Yrotation Zrotation
						End Site
						{
							OFFSET 0.000000 9.175140 0.000000
						}
					}
				}
				JOINT LHoodieString
				{
					OFFSET 5.250500 16.397697 3.089900
					CHANNELS 3 Xrotation Yrotation Zrotation
					JOINT LHoodieString1
					{
						OFFSET 0.257700 -6.364304 3.694600
						CHANNELS 3 Xrotation Yrotation Zrotation
						JOINT LHoodieString2
						{
							OFFSET 0.000000 -9.643799 2.679100
							CHANNELS 3 Xrotation Yrotation Zrotation
							End Site
							{
								OFFSET 0.000000 10.009018 0.000000
							}
						}
					}
				}
				JOINT RHoodieString
				{
					OFFSET -5.250500 16.397697 3.089900
					CHANNELS 3 Xrotation Yrotation Zrotation
					JOINT RHoodieString1
					{
						OFFSET -0.257700 -6.364304 3.694600
						CHANNELS 3 Xrotation Yrotation Zrotation
						JOINT RHoodieString2
						{
							OFFSET 0.000000 -9.643799 2.679100
							CHANNELS 3 Xrotation Yrotation Zrotation
							End Site
							{
								OFFSET 0.000000 10.009018 0.000000
							}
						}
					}
				}
			}
			JOINT LBackpack_Strap
			{
				OFFSET 15.223200 -7.719803 -6.610900
				CHANNELS 3 Xrotation Yrotation Zrotation
				End Site
				{
					OFFSET 0.000000 16.040596 0.000000
				}
			}
			JOINT RBackpack_Strap
			{
				OFFSET -15.223000 -7.719803 -6.610900
				CHANNELS 3 Xrotation Yrotation Zrotation
				End Site
				{
					OFFSET 0.000000 16.040596 0.000000
				}
			}
		}
	}
	JOINT BoyFacialAnim_Joint
	{
		OFFSET 1.000000 -82.208099 -1.550900
		CHANNELS 3 Xrotation Yrotation Zrotation
		End Site
		{
			OFFSET 0.000000 30.012791 0.000000
		}
	}
}
MOTION
Frames: 4
Frame Time: 0.033333
5.891909 67.683434 -0.327863 10.652714 -61.668562 4.020122 -0.000000 -0.000001 -0.000000 -56.231445 6.237459 43.474827 63.922689 9.562027 -0.820588 -5.744998 6.278287 -18.384313 -0.000000 0.000000 -0.000000 -0.000000 0.000000 0.000000 -0.000000 0.000000 0.000002 -35.020764 -11.852519 -29.668511 56.112944 6.842834 -1.888140 -22.774984 -5.797435 25.460611 0.000000 -0.000000 -0.000000 0.000000 -0.000000 -0.000000 -0.000002 0.000001 -0.000001 14.287083 -6.433375 -4.929419 2.481843 -1.874633 -1.690915 2.482890 -1.902533 -1.642604 1.503880 8.859584 -0.431396 -18.471970 44.790871 3.103078 0.000001 -0.000000 -0.000000 0.000001 -0.000000 -0.000000 0.000001 -0.000000 -0.000000 0.492832 -2.095419 -1.499220 -29.144065 -1.598951 -24.032155 -0.000007 -35.007551 -0.000012 34.356265 -10.515318 52.619057 -1.540039 3.690188 6.142352 3.939055 7.948698 0.746810 -0.000002 -0.000001 -0.000001 -0.007792 -2.718694 -0.328344 0.002936 0.201482 -1.669854 -0.000001 -0.000001 -0.000007 0.000005 -0.001925 0.015983 0.046651 0.801854 -6.660009 -0.000000 0.000001 0.000002 0.132267 2.309697 -3.506519 0.087912 1.099038 -9.146902 -0.000001 0.000004 -0.000003 1.507892 10.019308 -8.519645 0.066636 -3.035782 -8.982230 0.000001 -0.000001 0.000001 0.000001 0.000001 -0.000001 -0.291484 -4.187267 -4.175903 33.507245 12.930605 49.681017 0.000810 84.978113 -0.000839 2.986119 28.104427 -17.861735 26.412955 -4.122953 1.532513 16.242142 -19.271425 1.408746 0.000000 -0.000001 -0.000000 1.644045 -4.494593 40.166922 1.644042 -4.494583 40.166901 0.000001 0.000001 0.000000 2.500934 -5.343865 50.134295 3.807048 -6.200765 63.065855 0.000003 0.000001 -0.000000 3.173021 -5.837379 57.024939 4.574211 -6.531952 69.976012 0.000003 0.000001 0.000001 3.783308 -6.188695 62.845800 5.249000 -6.738255 75.810927 -0.000003 0.000000 -0.000001 -0.000000 -0.000000 -0.000001 0.000001 0.000001 -0.000000 0.000001 0.000001 -0.000000 0.000001 0.000001 -0.000000 0.000001 0.000001 -0.000000 0.000001 0.000001 -0.000001 0.000001 0.000002 0.000001 0.000001 0.000001 -0.000000 0.000001 0.000001 -0.000001 0.000001 0.000002 0.000001 -0.000000 0.000001 0.000001 -0.000000 0.000001 0.000001 -0.000000 -0.000001 -0.000000 
5.615992 67.591133 0.019717 11.062948 -60.461934 4.350777 -0.000000 0.000001 -0.000000 -57.780914 6.544107 43.828094 64.896011 9.823913 -1.615716 -5.994639 6.167447 -16.618870 -0.000000 -0.000000 0.000000 -0.000000 -0.000000 -0.000000 0.000000 -0.000001 -0.000001 -34.573960 -12.381320 -30.000732 55.978752 6.880391 -1.832503 -23.051933 -6.665367 25.096828 -0.000000 -0.000000 -0.000000 -0.000000 -0.000000 -0.000000 -0.000002 0.000001 -0.000002 14.488107 -6.675509 -4.924901 2.444227 -1.960178 -1.623488 2.447808 -1.986512 -1.570214 1.182470 8.806469 -0.258909 -18.528543 44.610226 3.068261 0.000002 0.000000 -0.000000 0.000002 0.000000 -0.000000 0.000002 0.000000 -0.000000 0.523949 -2.524140 -1.252448 -28.843370 -2.899040 -23.298595 -0.000002 -33.787368 -0.000012 32.838928 -10.010522 53.098126 -1.540039 3.690186 6.142350 3.939057 7.948701 0.746816 0.000000 -0.000002 0.000001 -0.007793 -2.718670 -0.328337 0.002944 0.201475 -1.669858 -0.000003 0.000001 -0.000003 0.000008 -0.001923 0.015981 0.046658 0.801863 -6.660015 0.000002 -0.000000 0.000000 0.132269 2.309677 -3.506518 0.087911 1.099050 -9.146901 -0.000002 0.000001 -0.000004 1.507888 10.019321 -8.519641 0.066644 -3.035763 -8.982229 0.000001 0.000001 -0.000000 0.000001 -0.000001 0.000003 -0.236728 -3.868392 -3.826070 32.627820 12.663744 50.390352 -0.000043 84.194635 0.000051 3.543646 28.753601 -17.849299 26.412961 -4.122951 1.532518 16.242145 -19.271425 1.408753 0.000001 0.000001 0.000001 1.644046 -4.494594 40.166929 1.644044 -4.494584 40.166898 0.000000 0.000001 0.000002 2.500938 -5.343868 50.134299 3.807051 -6.200760 63.065862 0.000002 0.000001 0.000003 3.173022 -5.837378 57.024939 4.574212 -6.531951 69.976019 0.000001 -0.000001 0.000002 3.783316 -6.188700 62.845807 5.249002 -6.738252 75.810927 -0.000001 -0.000001 0.000000 0.000001 0.000000 -0.000002 0.000002 -0.000000 -0.000002 0.000002 -0.000000 -0.000002 0.000002 -0.000000 -0.000002 0.000002 -0.000000 -0.000002 0.000002 -0.000000 -0.000000 -0.000000 -0.000001 -0.000000 0.000002 -0.000000 -0.000002 0.000002 -0.000000 -0.000000 -0.000000 -0.000001 -0.000000 0.000000 0.000002 -0.000000 0.000000 0.000002 -0.000000 -0.000000 0.000001 -0.000000 
5.272778 67.284248 0.673864 11.382060 -59.212003 4.393670 0.000000 0.000000 0.000000 -60.535529 6.552508 44.414295 67.247188 9.923926 -2.715493 -5.188881 9.292740 -14.313636 -0.000000 -0.000000 0.000000 -0.000000 -0.000000 0.000000 -0.000000 -0.000001 -0.000000 -33.995429 -12.916741 -30.435733 55.975688 6.674364 -1.828139 -23.295364 -7.230308 24.999129 0.000000 0.000000 0.000000 0.000000 0.000000 0.000000 0.000001 0.000000 -0.000001 14.870048 -6.983846 -4.956534 2.419739 -2.060306 -1.567520 2.426058 -2.085859 -1.507370 0.611430 8.726490 0.089364 -19.173910 44.335239 3.399193 0.000000 -0.000001 0.000000 0.000000 -0.000001 0.000000 0.000000 -0.000001 0.000000 0.519490 -2.557323 -0.177558 -27.971042 -4.403745 -22.121086 -0.000002 -32.302444 -0.000004 31.823767 -8.749919 52.186060 -1.540040 3.690187 6.142355 3.939057 7.948704 0.746810 -0.000000 -0.000000 0.000001 -0.007791 -2.718687 -0.328340 0.002933 0.201475 -1.669837 0.000001 -0.000003 -0.000004 0.000007 -0.001927 0.015985 0.046660 0.801862 -6.660010 0.000002 -0.000003 -0.000002 0.132263 2.309702 -3.506503 0.087917 1.099022 -9.146907 0.000001 -0.000000 -0.000004 1.507887 10.019322 -8.519629 0.066643 -3.035771 -8.982226 -0.000000 0.000003 0.000000 0.000000 0.000000 -0.000001 -0.226102 -3.834729 -3.645981 31.955638 12.905754 50.859057 0.000390 83.584297 -0.000390 3.677158 29.205595 -17.828576 26.412956 -4.122954 1.532516 16.242149 -19.271427 1.408750 -0.000000 0.000000 -0.000002 1.644046 -4.494594 40.166925 1.644044 -4.494580 40.166901 -0.000000 -0.000000 -0.000000 2.500939 -5.343872 50.134295 3.807049 -6.200766 63.065862 0.000001 -0.000000 -0.000000 3.173024 -5.837381 57.024942 4.574211 -6.531951 69.976012 0.000000 0.000000 0.000004 3.783312 -6.188699 62.845807 5.249003 -6.738251 75.810927 -0.000003 -0.000000 -0.000003 -0.000001 0.000001 -0.000004 0.000001 -0.000002 -0.000001 0.000001 -0.000002 -0.000001 0.000001 -0.000002 -0.000001 0.000001 -0.000002 -0.000001 0.000001 -0.000002 0.000000 0.000001 0.000000 0.000002 0.000001 -0.000002 -0.000001 0.000001 -0.000002 0.000000 0.000001 0.000000 0.000002 -0.000000 -0.000000 0.000002 -0.000000 -0.000000 0.000002 0.000000 0.000000 0.000000 
4.872124 66.888031 1.717561 11.957529 -57.859905 4.237887 -0.000000 0.000003 0.000000 -64.193874 6.725909 44.937293 70.185917 9.944293 -4.242102 -5.301780 16.256038 -10.956617 -0.000000 -0.000001 -0.000000 -0.000000 -0.000001 -0.000000 -0.000001 -0.000000 -0.000000 -32.555899 -13.689015 -30.635389 54.936793 6.125375 -1.753642 -23.821816 -7.700880 25.958199 -0.000000 -0.000000 0.000000 -0.000000 -0.000000 0.000000 0.000001 -0.000000 -0.000001 15.194104 -7.355526 -4.677838 2.365224 -2.196315 -1.405944 2.374130 -2.219132 -1.337424 -0.137230 8.677228 0.262394 -20.055385 43.994539 3.862378 -0.000001 0.000001 -0.000000 -0.000001 0.000001 -0.000000 -0.000001 0.000001 -0.000000 0.444545 -1.907894 1.226123 -27.032994 -5.683269 -19.947626 -0.000009 -31.424990 -0.000014 29.898443 -6.648095 49.709294 -1.540040 3.690192 6.142348 3.939057 7.948698 0.746813 -0.000001 0.000000 0.000003 -0.007792 -2.718684 -0.328343 0.002935 0.201498 -1.669847 -0.000000 0.000002 -0.000001 0.000005 -0.001927 0.015982 0.046658 0.801893 -6.660009 0.000002 0.000001 0.000002 0.132270 2.309695 -3.506511 0.087913 1.099036 -9.146895 -0.000000 -0.000002 -0.000003 1.507895 10.019319 -8.519648 0.066637 -3.035783 -8.982235 -0.000000 0.000002 0.000000 0.000000 0.000001 -0.000000 -0.312805 -4.308100 -4.263442 31.477934 13.650504 51.512385 -0.000157 83.219161 0.000130 4.200037 29.536159 -18.231552 26.412961 -4.122954 1.532513 16.242145 -19.271427 1.408748 0.000001 -0.000000 -0.000004 1.644042 -4.494594 40.166922 1.644043 -4.494583 40.166905 -0.000003 -0.000001 0.000005 2.500934 -5.343866 50.134299 3.807049 -6.200769 63.065855 0.000002 0.000000 0.000002 3.173021 -5.837383 57.024942 4.574212 -6.531953 69.976026 -0.000000 0.000002 0.000008 3.783308 -6.188697 62.845807 5.249000 -6.738255 75.810927 -0.000000 0.000000 0.000000 -0.000000 0.000001 -0.000006 -0.000000 0.000001 -0.000003 -0.000000 0.000001 -0.000003 -0.000000 0.000001 -0.000003 -0.000000 0.000001 -0.000003 -0.000000 0.000001 -0.000001 -0.000000 0.000002 0.000000 -0.000000 0.000001 -0.000003 -0.000000 0.000001 -0.000001 -0.000000 0.000002 0.000000 -0.000000 -0.000001 -0.000000 -0.000000 -0.000001 -0.000000 -0.000000 0.000003 0.000000 
